<?xml version="1.0" encoding="UTF-8" standalone="no"?>
<svg
   version="1.1"
   width="128"
   height="128"
   id="svg5390"
   sodipodi:docname="elementary-archetype.svg"
   inkscape:version="1.1.2 (0a00cf5339, 2022-02-04)"
   xmlns:inkscape="http://www.inkscape.org/namespaces/inkscape"
   xmlns:sodipodi="http://sodipodi.sourceforge.net/DTD/sodipodi-0.dtd"
   xmlns:xlink="http://www.w3.org/1999/xlink"
   xmlns="http://www.w3.org/2000/svg"
   xmlns:svg="http://www.w3.org/2000/svg"
   xmlns:rdf="http://www.w3.org/1999/02/22-rdf-syntax-ns#"
   xmlns:cc="http://creativecommons.org/ns#"
   xmlns:dc="http://purl.org/dc/elements/1.1/">
  <sodipodi:namedview
     id="namedview46"
     pagecolor="#ffffff"
     bordercolor="#666666"
     borderopacity="1.0"
     inkscape:pageshadow="2"
     inkscape:pageopacity="0.0"
     inkscape:pagecheckerboard="0"
     showgrid="false"
     inkscape:zoom="9.09375"
     inkscape:cx="22.43299"
     inkscape:cy="60.426117"
     inkscape:window-width="3008"
     inkscape:window-height="1631"
     inkscape:window-x="0"
     inkscape:window-y="30"
     inkscape:window-maximized="1"
     inkscape:current-layer="svg5390"
     width="128px" />
  <defs
     id="defs5392">
    <linearGradient
       x1="23.99999"
       y1="4.999989"
       x2="23.99999"
       y2="43"
       id="linearGradient5313"
       xlink:href="#linearGradient3924-9-5"
       gradientUnits="userSpaceOnUse"
       gradientTransform="translate(3.7e-6,1.00001)" />
    <linearGradient
       id="linearGradient3924-9-5">
      <stop
         id="stop3926-2-0"
         style="stop-color:#ffffff;stop-opacity:1"
         offset="0" />
      <stop
         id="stop3928-2-0"
         style="stop-color:#ffffff;stop-opacity:0.23529412"
         offset="0.06316455" />
      <stop
         id="stop3930-6-1"
         style="stop-color:#ffffff;stop-opacity:0.15686275"
         offset="0.95056331" />
      <stop
         id="stop3932-1-6"
         style="stop-color:#ffffff;stop-opacity:0.39215687"
         offset="1" />
    </linearGradient>
    <radialGradient
       cx="11.546201"
       cy="8.4497671"
       r="19.99999"
       fx="11.546201"
       fy="8.4497671"
       id="radialGradient5232"
       xlink:href="#linearGradient2867-449-88-871-390-598-476-591-434-148-57-177-7-4-9-9-2-2-0-8-0"
       gradientUnits="userSpaceOnUse"
       gradientTransform="matrix(1.942847e-8,2.3369903,-2.4722571,-4.3056281e-8,44.890112,-11.434803)" />
    <linearGradient
       id="linearGradient2867-449-88-871-390-598-476-591-434-148-57-177-7-4-9-9-2-2-0-8-0">
      <stop
         id="stop3750-6-3-7-0-5-3-5-7"
         style="stop-color:#54bfec;stop-opacity:1"
         offset="0" />
      <stop
         id="stop3752-3-7-7-6-4-4-3-4"
         style="stop-color:#55c1ec;stop-opacity:1"
         offset="0.26238" />
      <stop
         id="stop3754-1-7-4-6-36-7-7-2-4"
         style="stop-color:#3689e6;stop-opacity:1"
         offset="0.704952" />
      <stop
         id="stop3756-7-5-7-1-4-3-1-7"
         style="stop-color:#2b63a0;stop-opacity:1"
         offset="1" />
    </linearGradient>
    <linearGradient
       x1="24"
       y1="44"
       x2="24"
       y2="3.8990016"
       id="linearGradient5234"
       xlink:href="#linearGradient3707-319-631-407-324-3-2-9"
       gradientUnits="userSpaceOnUse"
       gradientTransform="translate(2e-6,0.9999993)" />
    <linearGradient
       id="linearGradient3707-319-631-407-324-3-2-9">
      <stop
         id="stop3760-3-9-5"
         style="stop-color:#1e74bc;stop-opacity:1"
         offset="0" />
      <stop
         id="stop3762-0-8-9"
         style="stop-color:#3fa8ea;stop-opacity:1"
         offset="1" />
    </linearGradient>
    <radialGradient
       cx="4.9929786"
       cy="43.5"
       r="2.5"
       fx="4.9929786"
       fy="43.5"
       id="radialGradient3013"
       xlink:href="#linearGradient3688-166-749"
       gradientUnits="userSpaceOnUse"
       gradientTransform="matrix(2.003784,0,0,1.4,27.98813,-17.4)" />
    <linearGradient
       id="linearGradient3688-166-749">
      <stop
         id="stop2883"
         style="stop-color:#181818;stop-opacity:1"
         offset="0" />
      <stop
         id="stop2885"
         style="stop-color:#181818;stop-opacity:0"
         offset="1" />
    </linearGradient>
    <radialGradient
       cx="4.9929786"
       cy="43.5"
       r="2.5"
       fx="4.9929786"
       fy="43.5"
       id="radialGradient3015"
       xlink:href="#linearGradient3688-464-309"
       gradientUnits="userSpaceOnUse"
       gradientTransform="matrix(2.003784,0,0,1.4,-20.01187,-104.4)" />
    <linearGradient
       id="linearGradient3688-464-309">
      <stop
         id="stop2889"
         style="stop-color:#181818;stop-opacity:1"
         offset="0" />
      <stop
         id="stop2891"
         style="stop-color:#181818;stop-opacity:0"
         offset="1" />
    </linearGradient>
    <linearGradient
       id="linearGradient3702-501-757">
      <stop
         id="stop2895"
         style="stop-color:#181818;stop-opacity:0"
         offset="0" />
      <stop
         id="stop2897"
         style="stop-color:#181818;stop-opacity:1"
         offset="0.5" />
      <stop
         id="stop2899"
         style="stop-color:#181818;stop-opacity:0"
         offset="1" />
    </linearGradient>
    <linearGradient
       x1="25.058096"
       y1="47.027729"
       x2="25.058096"
       y2="39.999443"
       id="linearGradient5388"
       xlink:href="#linearGradient3702-501-757"
       gradientUnits="userSpaceOnUse" />
    <radialGradient
       r="7.228416"
       fy="73.615715"
       fx="6.702713"
       cy="73.615715"
       cx="6.702713"
       gradientTransform="matrix(2.0751204,0,0,0.4539376,10.296334,3.7373075)"
       gradientUnits="userSpaceOnUse"
       id="radialGradient4643"
       xlink:href="#linearGradient10691-3" />
    <linearGradient
       id="linearGradient10691-3">
      <stop
         offset="0"
         style="stop-color:#000000;stop-opacity:1"
         id="stop10693-1" />
      <stop
         offset="1"
         style="stop-color:#000000;stop-opacity:0"
         id="stop10695-4" />
    </linearGradient>
    <linearGradient
       xlink:href="#linearGradient3339"
       id="linearGradient3100"
       gradientUnits="userSpaceOnUse"
       gradientTransform="matrix(0.3658976,0,0,0.5316595,10.363726,11.930229)"
       x1="31"
       y1="12.875"
       x2="3.2591991"
       y2="24.893845" />
    <linearGradient
       id="linearGradient3339">
      <stop
         id="stop3341"
         style="stop-color:#ffffff;stop-opacity:1"
         offset="0" />
      <stop
         id="stop3343"
         style="stop-color:#ffffff;stop-opacity:0"
         offset="1" />
    </linearGradient>
    <radialGradient
       xlink:href="#linearGradient3339"
       id="radialGradient3097"
       gradientUnits="userSpaceOnUse"
       gradientTransform="matrix(0.17000422,0.41109103,-0.32227849,0.14123516,23.028721,2.1495726)"
       cx="32.5"
       cy="16.5625"
       fx="32.5"
       fy="16.5625"
       r="14.4375" />
    <linearGradient
       xlink:href="#linearGradient3220-2-2"
       id="linearGradient4203"
       gradientUnits="userSpaceOnUse"
       gradientTransform="matrix(0.26725589,0,0,1.157552,9.315594,-10.704165)"
       x1="-32.957481"
       y1="27.388975"
       x2="-25.474016"
       y2="27.388975" />
    <linearGradient
       id="linearGradient3220-2-2">
      <stop
         id="stop3222-7-1"
         style="stop-color:#2e3436;stop-opacity:1"
         offset="0" />
      <stop
         id="stop3228-2-8"
         style="stop-color:#888a85;stop-opacity:1"
         offset="0.64444447" />
      <stop
         id="stop3224-9-9"
         style="stop-color:#555753;stop-opacity:1"
         offset="1" />
    </linearGradient>
    <linearGradient
       xlink:href="#linearGradient3338-5-6"
       id="linearGradient4205"
       gradientUnits="userSpaceOnUse"
       gradientTransform="matrix(0.77602087,0.23906428,-0.31605097,0.56747902,-20.167798,4.551095)"
       x1="27.52779"
       y1="4.1670198"
       x2="30.419695"
       y2="2.9487348" />
    <linearGradient
       id="linearGradient3338-5-6">
      <stop
         id="stop3340-8-1"
         style="stop-color:#eeeeec;stop-opacity:1"
         offset="0" />
      <stop
         id="stop2677-0-5"
         style="stop-color:#ffffff;stop-opacity:1"
         offset="0.78888887" />
      <stop
         id="stop3342-6-9"
         style="stop-color:#eeeeec;stop-opacity:1"
         offset="1" />
    </linearGradient>
  </defs>
  <metadata
     id="metadata5395">
    <rdf:RDF>
      <cc:Work
         rdf:about="">
        <dc:format>image/svg+xml</dc:format>
        <dc:type
           rdf:resource="http://purl.org/dc/dcmitype/StillImage" />
      </cc:Work>
    </rdf:RDF>
  </metadata>
  <g
     id="g235"
     transform="matrix(2.66667,0,0,2.66667,-8.2133336e-5,-4.000085)">
    <g
       transform="matrix(1.1578952,0,0,0.57142859,-3.789484,19.142856)"
       id="g3712"
       style="opacity:0.4">
      <rect
         width="5"
         height="7"
         x="38"
         y="40"
         id="rect2801"
         style="fill:url(#radialGradient3013);fill-opacity:1;stroke:none" />
      <rect
         width="5"
         height="7"
         x="-10"
         y="-47"
         transform="scale(-1)"
         id="rect3696"
         style="fill:url(#radialGradient3015);fill-opacity:1;stroke:none" />
      <rect
         width="28"
         height="7.0000005"
         x="10"
         y="40"
         id="rect3700"
         style="fill:url(#linearGradient5388);fill-opacity:1;stroke:none" />
    </g>
    <rect
       width="39"
       height="39"
       rx="2"
       ry="2"
       x="4.5"
       y="5.5"
       id="rect5505-21-69-0"
       style="color:#000000;display:inline;overflow:visible;visibility:visible;fill:url(#radialGradient5232);fill-opacity:1;fill-rule:nonzero;stroke:url(#linearGradient5234);stroke-width:1;stroke-linecap:round;stroke-linejoin:round;stroke-miterlimit:4;stroke-dasharray:none;stroke-dashoffset:0;stroke-opacity:1;marker:none;enable-background:accumulate" />
    <path
       d="m 9,8 v 2 H 7.5 v 1 H 9 v 4 H 7.5 v 1 H 9 v 4 H 7.5 v 1 H 9 v 4 H 7.5 v 1 H 9 v 4 H 7.5 v 1 H 9 v 4 H 7.5 v 1 H 9 v 4 H 7.5 v 1 H 9 v 1 h 1 v -1 h 4 v 1 h 1 v -1 h 4 v 1 h 1 v -1 h 4 v 1 h 1 v -1 h 4 v 1 h 1 v -1 h 4 v 1 h 1 v -1 h 4 v 1 h 1 v -1 h 1.5 V 40 H 40 v -4 h 1.5 V 35 H 40 v -4 h 1.5 V 30 H 40 v -4 h 1.5 V 25 H 40 v -4 h 1.5 V 20 H 40 v -4 h 1.5 V 15 H 40 v -4 h 1.5 V 10 H 40 V 8 h -1 v 2 H 35 V 8 h -1 v 2 H 30 V 8 h -1 v 2 H 25 V 8 h -1 v 2 H 20 V 8 h -1 v 2 H 15 V 8 h -1 v 2 H 10 V 8 Z m 1,3 h 4 v 4 h -4 z m 5,0 h 4 v 4 h -4 z m 5,0 h 4 v 4 h -4 z m 5,0 h 4 v 4 h -4 z m 5,0 h 4 v 4 h -4 z m 5,0 h 4 v 4 h -4 z m -25,5 h 4 v 4 h -4 z m 5,0 h 4 v 4 h -4 z m 5,0 h 4 v 4 h -4 z m 5,0 h 4 v 4 h -4 z m 5,0 h 4 v 4 h -4 z m 5,0 h 4 v 4 h -4 z m -25,5 h 4 v 4 h -4 z m 5,0 h 4 v 4 h -4 z m 5,0 h 4 v 4 h -4 z m 5,0 h 4 v 4 h -4 z m 5,0 h 4 v 4 h -4 z m 5,0 h 4 v 4 h -4 z m -25,5 h 4 v 4 h -4 z m 5,0 h 4 v 4 h -4 z m 5,0 h 4 v 4 h -4 z m 5,0 h 4 v 4 h -4 z m 5,0 h 4 v 4 h -4 z m 5,0 h 4 v 4 h -4 z m -25,5 h 4 v 4 h -4 z m 5,0 h 4 v 4 h -4 z m 5,0 h 4 v 4 h -4 z m 5,0 h 4 v 4 h -4 z m 5,0 h 4 v 4 h -4 z m 5,0 h 4 v 4 h -4 z m -25,5 h 4 v 4 h -4 z m 5,0 h 4 v 4 h -4 z m 5,0 h 4 v 4 h -4 z m 5,0 h 4 v 4 h -4 z m 5,0 h 4 v 4 h -4 z m 5,0 h 4 v 4 h -4 z"
       id="rect3132"
       style="color:#000000;display:inline;overflow:visible;visibility:visible;opacity:0.1;fill:#ffffff;fill-opacity:1;fill-rule:nonzero;stroke:none;stroke-width:1;marker:none;enable-background:accumulate" />
    <path
       d="m 24.899095,7 c -2.253636,0.1007825 -4.757578,0.7456547 -7.59375,2.03125 a 3.0056163,3.0056163 0 0 0 1.46875,5.75 c 0,0 2.266648,-0.04358 3.4375,0.34375 0.585426,0.193665 0.563427,0.345991 0.46875,0.125 -0.09468,-0.220991 0.181461,-0.06983 -0.5625,1.21875 l -2.125,3.6875 a 3.0056163,3.0056163 0 0 0 -2.5,1.5 L 9.3990948,35.6875 a 3.0056163,3.0056163 0 0 0 1.0937502,4.09375 l 4.84375,2.8125 A 3.0056163,3.0056163 0 0 0 19.430345,41.5 l 8.125,-14.03125 a 3.0056163,3.0056163 0 0 0 0.0625,-2.9375 l 1.75,-3.03125 a 3.0056163,3.0056163 0 0 0 1.09375,1.0625 l 2.21875,1.28125 A 3.0056163,3.0056163 0 0 0 36.774095,22.75 l 3.25,-5.65625 A 3.0056163,3.0056163 0 0 0 38.961595,13 l -2.1875,-1.28125 a 3.0056163,3.0056163 0 0 0 -2.28125,-0.3125 l -0.28125,0.0625 C 33.433608,10.327508 32.321968,9.0813533 30.586595,8.1875 29.082091,7.4125623 27.146307,6.8995051 24.899095,7 Z"
       id="path5258-8"
       style="color:#000000;display:inline;overflow:visible;visibility:visible;opacity:0.05;fill:#2e8ed3;fill-opacity:1;fill-rule:nonzero;stroke:none;stroke-width:1;marker:none;enable-background:accumulate" />
    <rect
       width="37"
       height="37"
       rx="1"
       ry="1"
       x="5.5"
       y="6.5"
       id="rect6741-1"
       style="opacity:0.5;fill:none;stroke:url(#linearGradient5313);stroke-width:1;stroke-linecap:round;stroke-linejoin:round;stroke-miterlimit:4;stroke-dasharray:none;stroke-dashoffset:0;stroke-opacity:1" />
    <g
       id="g78"
       transform="translate(-2)">
      <path
         d="m 10.500938,23.759655 c 7.581951,0.804865 2.436333,-7.329064 10.820541,-11.117177 l 3.071349,9.544738 C 20.877846,19.805745 19.723149,29.881987 10.4552,24.6236 Z"
         id="path3337"
         style="display:inline;opacity:0.444444;fill:url(#linearGradient3100);fill-opacity:1;fill-rule:evenodd;stroke:none;stroke-width:1.25" />
      <path
         d="m 25.670558,23.784365 c -2.569724,1.126152 -5.751783,-0.618168 -7.107331,-3.896046 -1.355548,-3.27788 -0.371264,-6.848055 2.198459,-7.974209 2.569723,-1.126154 5.751783,0.618163 7.10733,3.896044 1.355549,3.27788 0.371265,6.848056 -2.198458,7.974211 z"
         id="path3249"
         style="display:inline;fill:url(#radialGradient3097);fill-opacity:1;stroke:none;stroke-width:1.25" />
      <path
         d="m 22.475166,20.525477 -2.482321,-0.369227 -1.499036,1.917549 -0.419909,-2.50204 -2.26622,-0.849487 2.222805,-1.177117 0.09844,-2.442564 1.793675,1.774543 2.327058,-0.660099 -1.11425,2.273844 1.339762,2.034598 z"
         id="path3331"
         style="display:inline;fill:#ffffff;fill-opacity:1;stroke:none;stroke-width:1.25" />
      <path
         d="m 17.267283,26.540069 -1.037632,-1.342925 -1.663718,0.187118 1.006481,-1.364706 -0.699035,-1.464939 1.659671,0.49949 1.231691,-1.0925 0.01925,1.673408 1.46026,0.789737 -1.647772,0.534733 z"
         id="path3333"
         style="display:inline;fill:#ffffff;fill-opacity:1;stroke:none;stroke-width:1.25" />
      <g
         id="g4198"
         transform="matrix(1.4451669,-0.83436744,0.70603439,1.2228874,10.775758,1.0067712)">
        <path
           id="rect3174"
           d="M 0.5,18 V 30.4375 C 0.5,31.0192 0.797334,31.5 1.166667,31.5 H 1.833334 C 2.202667,31.5 2.5,31.0192 2.5,30.4375 V 18 Z"
           style="color:#000000;display:inline;overflow:visible;visibility:visible;fill:url(#linearGradient4203);fill-opacity:1;fill-rule:evenodd;stroke:none;stroke-width:2;marker:none;enable-background:accumulate" />
        <rect
           ry="0.92948729"
           rx="0.74907047"
           y="10.5"
           x="0.5"
           height="21"
           width="2"
           id="rect3174-8"
           style="color:#000000;display:inline;overflow:visible;visibility:visible;opacity:0.3;fill:none;stroke:#000000;stroke-width:0.814307;stroke-miterlimit:4;stroke-dasharray:none;stroke-opacity:1;marker:none;enable-background:accumulate" />
        <path
           id="rect3174-6"
           d="M 1.166667,10.5 C 0.797334,10.5 0.5,10.9808 0.5,11.5625 V 18 h 2 V 11.5625 C 2.5,10.9808 2.202667,10.5 1.833334,10.5 Z"
           style="color:#000000;display:inline;overflow:visible;visibility:visible;fill:url(#linearGradient4205);fill-opacity:1;fill-rule:evenodd;stroke:none;stroke-width:2;marker:none;enable-background:accumulate" />
      </g>
    </g>
  </g>
</svg>
